<svg width="667" height="497" viewBox="0 0 667 497" fill="none" xmlns="http://www.w3.org/2000/svg">
<path d="M412.857 257.935C407.519 241.155 424.904 226.165 440.716 233.913L614.394 319.015C630.933 327.119 628.654 351.377 610.895 356.259L545.95 374.112C539.892 375.778 534.968 380.194 532.656 386.036L509.477 444.593C502.556 462.077 477.522 461.214 471.822 443.295L412.857 257.935Z" fill="#14B8A6"/>
<path d="M431 393C434.866 393 438 396.134 438 400C438 403.851 434.89 406.974 431.044 406.998L431.045 407H80V393H431ZM47 360H33V80H47V360ZM622 292C622 295.866 618.866 299 615 299C611.134 299 608 295.866 608 292V80H622V292ZM575 47H80V33H575V47Z" fill="#14B8A6"/>
<rect x="582" y="7" width="66" height="66" rx="13" stroke="#14B8A6" stroke-width="14"/>
<rect x="7" y="7" width="66" height="66" rx="13" stroke="#14B8A6" stroke-width="14"/>
<rect x="7" y="367" width="66" height="66" rx="13" stroke="#14B8A6" stroke-width="14"/>
</svg>
