<svg width="32" height="32" viewBox="0 0 32 32" fill="none" xmlns="http://www.w3.org/2000/svg">
<path d="M19.2648 17.3175C19.0512 16.6463 19.7466 16.0466 20.3791 16.3566L27.3262 19.7606C27.9878 20.0848 27.8966 21.0551 27.1863 21.2504L24.5885 21.9646C24.3461 22.0312 24.1492 22.2078 24.0567 22.4415L23.1295 24.7838C22.8527 25.4832 21.8513 25.4486 21.6233 24.7319L19.2648 17.3175Z" fill="#14B8A6"/>
<path d="M19.9902 22.7205C20.1444 22.7209 20.2704 22.8455 20.2705 22.9998C20.2704 23.1537 20.145 23.2781 19.9912 23.2791L19.9922 23.28H5.9502V22.7205H19.9902ZM4.63086 21.4001H4.07031V10.2H4.63086V21.4001ZM27.6299 18.6404V18.6804C27.6296 18.8346 27.5047 18.9593 27.3506 18.9597C27.1961 18.9597 27.0706 18.8348 27.0703 18.6804V10.2H27.6309L27.6299 18.6404ZM25.75 8.88062H5.9502V8.32007H25.75V8.88062Z" fill="#14B8A6"/>
<rect x="26.03" y="7.28" width="2.64" height="2.64" rx="0.52" stroke="#14B8A6" stroke-width="0.56"/>
<rect x="3.03" y="7.28" width="2.64" height="2.64" rx="0.52" stroke="#14B8A6" stroke-width="0.56"/>
<rect x="3.03" y="21.68" width="2.64" height="2.64" rx="0.52" stroke="#14B8A6" stroke-width="0.56"/>
</svg>
